<svg width="14" height="14" viewBox="0 0 14 14" fill="none" xmlns="http://www.w3.org/2000/svg">
<g clip-path="url(#clip0_3001_1231)">
<path d="M9.14274 14.0011H9.11986C8.86605 13.9918 8.6487 13.8152 8.5872 13.5686L6.95421 7.03726L0.43372 5.41286C0.187048 5.35137 0.00974381 5.13474 0.000447642 4.8802C-0.00956234 4.62639 0.149161 4.39617 0.390817 4.31538L13.2466 0.0298854C13.4518 -0.039467 13.6791 0.0141557 13.8328 0.167159C13.9858 0.320876 14.0395 0.54823 13.9701 0.753427L9.68755 13.6099C9.60962 13.8444 9.38941 14.0025 9.14274 14.0011ZM2.61858 4.77871L7.56464 6.0106H7.56392C7.76912 6.06208 7.92927 6.22151 7.98074 6.4267L9.22048 11.385L12.5229 1.47698L2.61858 4.77871Z" fill="#FF6A00"/>
</g>
<defs>
<clipPath id="clip0_3001_1231">
<rect width="14" height="14.0011" fill="white"/>
</clipPath>
</defs>
</svg>
