<svg width="21" height="19" viewBox="0 0 21 19" fill="none" xmlns="http://www.w3.org/2000/svg">
<path d="M20.0521 2.92751C20.0521 1.74351 19.0889 0.780273 17.9052 0.780273H2.14708C0.963244 0.780273 0 1.74351 0 2.92751V16.7402C0 17.9301 0.967969 18.8979 2.15783 18.8979H6.15149C6.17955 18.9008 6.2068 18.9064 6.23562 18.9064C6.26443 18.9064 6.29169 18.9008 6.31975 18.8979H20.0521L20.0521 2.92751ZM18.3826 17.2284H7.07039V11.0404H12.9819V14.323C12.9819 14.7841 13.3556 15.1578 13.8166 15.1578C14.2777 15.1578 14.6514 14.7841 14.6514 14.323V10.5653C14.6514 9.90658 14.1157 9.37083 13.457 9.37083H6.59529C5.93661 9.37083 5.40086 9.90658 5.40086 10.5653V17.2284H2.15784C1.88866 17.2284 1.66953 17.0092 1.66953 16.7402V2.92751C1.66953 2.66403 1.88376 2.4498 2.14708 2.4498H17.9052C18.1683 2.4498 18.3826 2.66403 18.3826 2.92751V17.2284Z" fill="#FF6A00"/>
</svg>
